<?xml version="1.0" standalone="no"?>
<!DOCTYPE svg PUBLIC "-//W3C//DTD SVG 1.1//EN" "http://www.w3.org/Graphics/SVG/1.1/DTD/svg11.dtd">
<svg xmlns="http://www.w3.org/2000/svg" viewBox="0 0 737.38 158.61" width="737.3800048828125" height="158.61000061035156"><defs><style>.cls-1{fill:#009b88;}.cls-2{fill:#000000;}</style></defs><g id="Layer_2" data-name="Layer 2"><g id="Layer_1-2" data-name="Layer 1"><circle class="cls-1" cx="413.61" cy="20.49" r="20.49"/><circle class="cls-1" cx="667.23" cy="20.49" r="20.49"/><circle class="cls-1" cx="715.25" cy="20.49" r="20.49"/><rect class="cls-1" x="442.03" width="157.57" height="40.99" rx="18.6"/><path class="cls-2" d="M0,150.3V32.75a8.19,8.19,0,0,1,16.38,0V142.11h92a8.19,8.19,0,1,1,0,16.38H8.19A8.19,8.19,0,0,1,0,150.3Z"/><path class="cls-2" d="M209.09,77.19v73.23a8.17,8.17,0,0,1-16.32.63,39.36,39.36,0,0,1-62.56-31.88v-42a8.19,8.19,0,1,1,16.38,0v42a23.06,23.06,0,0,0,46.12,0v-42a8.19,8.19,0,0,1,16.38,0Z"/><path class="cls-2" d="M373.73,108.42v42a8.19,8.19,0,1,1-16.38,0v-42a23.06,23.06,0,0,0-46.12,0v42a8.19,8.19,0,1,1-16.38,0v-42a23.06,23.06,0,0,0-46.12,0v42a8.19,8.19,0,0,1-16.38,0V77.18a8.17,8.17,0,0,1,16.32-.64A39.25,39.25,0,0,1,303,84.46a39.39,39.39,0,0,1,70.69,24Z"/><path class="cls-2" d="M479.87,113.8a8.19,8.19,0,0,1-8.19,8.19H407.84a28.43,28.43,0,0,0,47.32,11.91,8.19,8.19,0,1,1,11.58,11.58,44.78,44.78,0,0,1-76.46-31c0-.21,0-.42,0-.64s0-.44,0-.65a44.8,44.8,0,0,1,89.59.65Zm-17.57-8.19a28.43,28.43,0,0,0-54.46,0Z"/><path class="cls-2" d="M545.75,77.18a8.19,8.19,0,0,1-8.19,8.19,23.08,23.08,0,0,0-23.06,23v42a8.19,8.19,0,1,1-16.38,0V77.18a8.17,8.17,0,0,1,16.32-.64A39.19,39.19,0,0,1,537.56,69,8.18,8.18,0,0,1,545.75,77.18Z"/><path class="cls-2" d="M640.24,113.8A44.81,44.81,0,1,1,595.44,69,44.85,44.85,0,0,1,640.24,113.8Zm-16.38,0a28.43,28.43,0,1,0-28.42,28.42A28.46,28.46,0,0,0,623.86,113.8Z"/><path class="cls-2" d="M737.38,108.42v42a8.19,8.19,0,1,1-16.38,0v-42a23.06,23.06,0,0,0-46.12,0v42a8.19,8.19,0,1,1-16.38,0V77.18a8.17,8.17,0,0,1,16.32-.64,39.37,39.37,0,0,1,62.56,31.88Z"/></g></g></svg>
