<?xml version="1.0" encoding="UTF-8"?><svg xmlns="http://www.w3.org/2000/svg" xmlns:xlink="http://www.w3.org/1999/xlink" id="Layer_1" version="1.1" viewBox="0 320 2820 920" preserveAspectRatio="xMidYMid meet"><defs><style> .st0 { fill: url(#New_Gradient_Swatch_11); } .st1 { fill: url(#New_Gradient_Swatch_12); } .st2 { fill: #0d2828; } .st3 { fill: #031c37; } .st4 { fill: url(#New_Gradient_Swatch_1); } </style><linearGradient id="New_Gradient_Swatch_1" data-name="New Gradient Swatch 1" x1="2395.9" y1="1359.5" x2="2775.7" y2="643.9" gradientUnits="userSpaceOnUse"><stop offset="0" stop-color="#26366d"/><stop offset="1" stop-color="#2bb67a"/></linearGradient><linearGradient id="New_Gradient_Swatch_11" data-name="New Gradient Swatch 1" x1="2087.8" y1="1195.9" x2="2467.6" y2="480.4" xlink:href="#New_Gradient_Swatch_1"/><linearGradient id="New_Gradient_Swatch_12" data-name="New Gradient Swatch 1" x1="2275.8" y1="1295.7" x2="2655.6" y2="580.2" gradientTransform="translate(1271.9 -1606.3) rotate(45)" xlink:href="#New_Gradient_Swatch_1"/></defs><path class="st2" d="M2991.5,1248.3c-6.9,0-12.5-5.6-12.5-12.5V264.2c0-6.9,5.6-12.5,12.5-12.5s12.5,5.6,12.5,12.5v971.6c0,6.9-5.6,12.5-12.5,12.5h0Z"/><g><g><g><rect class="st4" x="2530.5" y="824" width="81.4" height="410.5"/><path class="st0" d="M2669.3,370v-75.8c-38.5.9-76.8,11.2-111.8,32.4l-98.6,59.7-.9-115.4.7-5.4h-76.6c0,1.8.9,3.7.8,5.5-2.8,38.2,3.3,75.8-3,116.2-19-13.2-28.8-21.6-45.8-26.1-37.9-33.5-109.1-68.7-161.8-61.4l-.8,74.7c8.1,1.7,13.6.9,19.1.8,18.1-.6,36.9,6.8,54.4,17.5l117.5,72.4c-33.3,26-65.8,39.8-97.3,61.7-27.7,19.3-57.1,35.8-93,35.5l-.6,70.3c89.1,6.6,132.6-47.3,208.4-88.5l2.1,103.2c-7.7,38.4-22.5,71.5-51.8,99.8l-39.4,38.1-33.3,32.8c-87.8,86.5-86.2,124.1-86.2,235v171.8c0,1.6.5,4.9,4.7,4.9h66.4c1.9-8.2.8-13.7.8-19.2v-124.1c44.6-11.4,92.5-1.4,138.8-4.8l1.5,111.1c-.5,13.1-2.8,25.8-1.2,41.6l76.1-.3v-314.7c.1,0,.1-374.5.1-374.5,77.6,37.3,118.2,95.8,210.7,88.2v-71.1c-64.6-1.3-133.6-62.2-194.3-96l122.5-76.3c20.7-12.9,48.6-16.7,71.8-19.7ZM2248,1005.3c1.6-12.9-2.9-27.5.9-42.2,9.5-36.8,31.1-67.3,57.5-91,7.6-6.9,15.8-13.3,19.6-22.9,2.7-7,10.7-10.7,18.4-14.7l37.6-35.2v206c0,0-134,0-134,0Z"/><rect class="st1" x="2536.5" y="693.7" width="77" height="77" transform="translate(236.5 2035.2) rotate(-45)"/></g><g><path class="st3" d="M1975.6,493.4l2.3-38.4-210.6-.9c22.3-23.8,66.3-75.4,97.9-75.6l111.2-.9,1.4-36.9-112.8.8c-24.8.2-54.8,14.4-71.7,30.9l-63.9,62.3c-9.1,8.9-31.1,20-47.1,20l-1052.9.2-.2-180.3c0-4.5-3.3-14.2-4-15.8h-33.5l-1.2,234.6,752.7-.6,632.5.5Z"/><path class="st3" d="M1605.9,885.7c-18,0-48.3,8.4-61.3,20.8l-75.9,72.8-1.8-93.8-36.7,1.2-.5,113-81.6-.8-.5-113.5-105.5.2c-28.6,0-59,14.2-78.7,33.3l-49.8,48.3-.4-159.5-37.4.9-.9,187.8c-31.1,2.6-53.3,3.2-81.1,3l-.4-113.8-37.3,1.1-.3,112.7h-81.9s0-191.7,0-191.7l-37.4,1.1.4,228.1,224-.4c28.9,0,51.2-18,74.7-35.1l3.5,35.5,294.7-.5c26.2,0,46.9-21,68.3-34l1.4,36.1,200.5.3v-153.5c-.1,0-98.3.4-98.3.4ZM1139.3,999.2c44.9-44.1,57.1-75.5,116.8-74.9l54.4.6.2,74.7-171.4-.4ZM1503.8,999.2l51.2-52.7c11.7-12,32.6-21.5,49.6-21.6l59.8-.5.8,75.2-161.5-.4Z"/><path class="st3" d="M998.5,691.7c22.3,0,43.4,18.7,55.3,35.5H373.7s-.2-193-.2-193l-39.5-.7.4,231.3,524.9.8,253.6,1.1c13.1-22.9-1.2-40.5-17.4-55.9-28-26.9-56.4-58-99.3-58.1l-385.1-.9c13.2-14.9,32.6-39.2,52.7-39.2l409.8-1.1-1.2-37.6-404.2.9c-39.6,0-67.2,31.3-92.5,54.6-18.8,17.3-30.1,31.7-20.6,61.9l443.2.5Z"/><path class="st3" d="M584.2,999.1l59.7-59.8c8.9-8.9,35.2-14.6,48.2-14.7l102.5-.4.9-38.8-109.1.2c-16.8,0-48.5,9.1-61,21l-89.2,85.7-86.6-83.2c-13.3-12.8-45.8-23.2-63.9-23.3l-99.4-.7-.7,114.3-183.5-.3c14-23.3,37.1-34.7,63-34.9l79.9-.8-1.1-37.6-97.5,2.7c-35.6,1-61,30.7-84.7,52-17.5,15.7-27.3,31.3-19.1,56.2h280.6c0,0,.3-111.9.3-111.9,88.6-12.8,98.5,10.5,155.6,66.8,19.7,19.5,47.4,44.1,80.3,44.2l236,.8-.9-37-210.5-.7Z"/><path class="st3" d="M1157.5,764.4l200.7,1.2,540.1.7-.6-230.9c-12.5-1.7-25.2-2.2-37.3-1.4l-.2,193.3-406.5-.4c-9.9,0-33-6.6-40.7-13.8l-58.1-54.9c-25.9-24.5-55.4-44.9-92.9-44.9l-104-.2.3,37,102.6.4c44.3.2,80,46.1,105.6,76.1l-209.5,1.2.6,36.6Z"/><path class="st3" d="M273.6,491.7c28.8-.1,52.6-19.7,74.2-33.6l2.7,34.4h197.9s0-152.1,0-152.1l-96.7.7c-88.8.6-122.3,113.2-185.4,113.4l-226,.4c-.3,12.8,0,23.9,1.1,37.8l232.3-1ZM510.5,377.9l.5,76.8-161-.6c65.9-66.4,61.4-80.4,160.5-76.2Z"/><path class="st3" d="M1896.9,808.1c-10.1-3.4-30.2-3-37.5,1.3-2.6,57.1,5.9,68.7-37.4,106.3-16.5-13.9-36.7-33.2-37.5-54.9l-2.1-52.5-37.3-.5c1.1,72.2-.1,87.8,50.5,139.4-29.8,23.5-49.9,54.3-48.7,91.7l147.5-.2c.8-39.3-17.5-68-46.6-92.9,42.2-34.5,55.8-84.5,49.2-137.7ZM1799.1,998l22.8-25.6,21.6,26.1-44.4-.5Z"/><path class="st3" d="M292.3,651.9l.8-38.3c-35-1.5-62.9,10.4-88.2,33.3-86.4,78.5-48.2,81.1-162.9,81.5l-1,36.4,251.8-.2.3-37.1-112.3-1,51.6-52.6c15.9-16.2,32.5-21.5,59.8-22Z"/><rect class="st3" x="1938.3" y="533" width="40" height="231.8"/><rect class="st3" x="1938.4" y="805.6" width="39.9" height="233.2"/><rect class="st3" x="1161" y="541.6" width="38.5" height="38.5" transform="translate(-50.9 998.8) rotate(-45)"/><rect class="st3" x="955.2" y="819.8" width="38.5" height="38.5" transform="translate(-307.9 934.8) rotate(-45)"/><rect class="st3" x="398.4" y="996.6" width="38.5" height="38.5" transform="translate(-595.9 592.9) rotate(-45)"/><rect class="st3" x="342" y="996.6" width="38.5" height="38.5" transform="translate(-612.5 553) rotate(-45)"/></g></g><g><path class="st3" d="M44,1183.5h-18.9v-9.3h49.4v9.3h-18.7v56.5h-11.8v-56.5Z"/><path class="st3" d="M84.7,1174.2h11.8v27.1h28v-27.1h11.8v65.8h-11.8v-29.3h-28v29.3h-11.8v-65.8Z"/><path class="st3" d="M151.5,1174.2h41v9.3h-29.2v18h22.7v9.2h-22.7v19.9h29.8v9.3h-41.6v-65.8Z"/><path class="st3" d="M246.3,1214.5l-21.3-40.3h12.6l15.1,29.5h.3l15.1-29.5h11.2l-21.1,40.3v25.5h-11.8v-25.5Z"/><path class="st3" d="M288.2,1174.2h41v9.3h-29.2v18h22.7v9.2h-22.7v19.9h29.8v9.3h-41.6v-65.8Z"/><path class="st3" d="M360.4,1174.2h12.1l23.4,65.8h-12.2l-5.9-16.7h-24.5l-5.9,16.7h-10.9l24-65.8ZM356.1,1214.5h18.7l-9.2-26.3h-.3l-9.2,26.3Z"/><path class="st3" d="M405,1174.2h22.1c15.1,0,22.9,6.4,22.9,19.3s-4.5,14.1-11.9,17v.5l16.3,29.1h-12.8l-14.7-26.6h-10.1v26.6h-11.8v-65.8ZM425.8,1205.3c8.5,0,12-3.7,12-11.4s-3.6-10.5-12.1-10.5h-8.9v22h9Z"/><path class="st3" d="M485.7,1208.2v-2.1c0-21.2,12.2-32.9,30.1-32.9s29.5,10.9,29.5,32.9v2.1c0,21.3-12.3,32.9-30.1,32.9s-29.5-11.1-29.5-32.9ZM532.8,1209.4v-3.3c0-14.8-4.8-23.7-17.5-23.8-11.4,0-17,9-17,22.3v3.4c0,14.9,4.8,23.9,17.4,23.9s17.2-9.1,17.2-22.5Z"/><path class="st3" d="M557.2,1174.2h40.4v9.3h-28.6v19.7h22.2v9.1h-22.2v27.7h-11.8v-65.8Z"/><path class="st3" d="M651.4,1174.2h12.1l23.4,65.8h-12.2l-5.9-16.7h-24.5l-5.9,16.7h-10.9l24-65.8ZM647.1,1214.5h18.7l-9.2-26.3h-.3l-9.2,26.3Z"/><path class="st3" d="M696,1174.2h22.1c15.1,0,22.9,6.4,22.9,19.3s-4.5,14.1-11.9,17v.5l16.3,29.1h-12.8l-14.7-26.6h-10.1v26.6h-11.8v-65.8ZM716.8,1205.3c8.5,0,12-3.7,12-11.4s-3.6-10.5-12.1-10.5h-8.9v22h9Z"/><path class="st3" d="M767.3,1183.5h-18.9v-9.3h49.4v9.3h-18.7v56.5h-11.8v-56.5Z"/><path class="st3" d="M808.4,1174.2h11.9v65.8h-11.9v-65.8Z"/><path class="st3" d="M835.8,1174.2h40.4v9.3h-28.6v19.7h22.2v9.1h-22.2v27.7h-11.8v-65.8Z"/><path class="st3" d="M887.9,1174.2h11.9v65.8h-11.9v-65.8Z"/><path class="st3" d="M912,1208.2v-2.4c0-23.7,13.8-32.6,30.9-32.6s12.5,1.2,16.5,3.5v9.2c-5.1-2-9.6-3.1-15.6-3.1-11.4,0-19,6.1-19,21.8v3.4c0,15.1,5.3,23.6,19.1,23.6s12.3-1.9,16.2-3.5v9.1c-4.5,2.4-10.5,4-18.4,4-18.3,0-29.6-10.7-29.6-32.9Z"/><path class="st3" d="M988.7,1174.2h12.1l23.4,65.8h-12.2l-5.9-16.7h-24.5l-5.9,16.7h-10.9l24-65.8ZM984.4,1214.5h18.7l-9.2-26.3h-.3l-9.2,26.3Z"/><path class="st3" d="M1033.3,1174.2h11.8v56.5h27.8v9.3h-39.6v-65.8Z"/><path class="st3" d="M1108.7,1174.2h11.9v65.8h-11.9v-65.8Z"/><path class="st3" d="M1136.2,1174.2h13.2l27.3,46.4h.3v-46.4h10.5v65.8h-11.7l-28.9-49.6h-.3v49.6h-10.5v-65.8Z"/><path class="st3" d="M1216.3,1183.5h-18.9v-9.3h49.4v9.3h-18.7v56.5h-11.8v-56.5Z"/><path class="st3" d="M1257.1,1174.2h41v9.3h-29.2v18h22.7v9.2h-22.7v19.9h29.8v9.3h-41.6v-65.8Z"/><path class="st3" d="M1311.9,1174.2h11.8v56.5h27.8v9.3h-39.6v-65.8Z"/><path class="st3" d="M1362.1,1174.2h11.8v56.5h27.8v9.3h-39.6v-65.8Z"/><path class="st3" d="M1412.7,1174.2h11.9v65.8h-11.9v-65.8Z"/><path class="st3" d="M1436.7,1208.5v-2c0-25,15.2-33.3,32.2-33.3s14.2,1.8,18,3.8v9.4c-3.9-1.7-9-3.6-17.7-3.6-15.4,0-20,10.4-20,22.7v3c0,13.6,3.5,23.3,19,23.3s7.7-.7,10.1-1.4v-15h-12.2v-8.8h23.7v30.5c-5,2-12.7,4-21.5,4-19.3,0-31.5-9.5-31.5-32.6Z"/><path class="st3" d="M1503,1174.2h41v9.3h-29.2v18h22.7v9.2h-22.7v19.9h29.8v9.3h-41.6v-65.8Z"/><path class="st3" d="M1557.8,1174.2h13.2l27.3,46.4h.3v-46.4h10.5v65.8h-11.7l-28.9-49.6h-.3v49.6h-10.5v-65.8Z"/><path class="st3" d="M1620.9,1208.2v-2.4c0-23.7,13.8-32.6,30.9-32.6s12.5,1.2,16.5,3.5v9.2c-5.1-2-9.6-3.1-15.6-3.1-11.4,0-19,6.1-19,21.8v3.4c0,15.1,5.3,23.6,19.1,23.6s12.3-1.9,16.2-3.5v9.1c-4.5,2.4-10.5,4-18.4,4-18.3,0-29.6-10.7-29.6-32.9Z"/><path class="st3" d="M1680.1,1174.2h41v9.3h-29.2v18h22.7v9.2h-22.7v19.9h29.8v9.3h-41.6v-65.8Z"/><path class="st3" d="M1757,1233.1l12.6-13.2c9.1-9.6,16.4-17.7,16.4-26s-4.3-11-12.7-11-10,2.2-13.6,4.4l-1.9-8.7c4.4-2.6,11.1-5,18.7-5,14.4,0,21.8,6.9,21.8,18.8s-10,22.1-18,30.5l-7.8,8h26.4v9.2h-41.8v-6.9Z"/><path class="st3" d="M1807.8,1209.6v-4.1c0-23.5,12.1-31.9,25.6-31.9s25.3,8.5,25.3,31.6v4.1c0,23.1-11.7,31.8-25.4,31.8s-25.5-9.2-25.5-31.5ZM1846.5,1210.1v-4.9c0-15.6-4.5-22.5-13.1-22.5s-13.3,6.5-13.3,21.9v5.1c0,15.2,4.3,22.5,13.2,22.5s13.2-6.3,13.2-22.1Z"/><path class="st3" d="M1867.8,1233.1l12.6-13.2c9.1-9.6,16.4-17.7,16.4-26s-4.3-11-12.7-11-10,2.2-13.6,4.4l-1.9-8.7c4.4-2.6,11.1-5,18.7-5,14.4,0,21.8,6.9,21.8,18.8s-10,22.1-18,30.5l-7.8,8h26.4v9.2h-41.8v-6.9Z"/><path class="st3" d="M1917.5,1212v-4.7c0-24.5,12.6-33.7,28.2-33.7s12.6,2,15.3,3.6l-2.3,8.6c-2.5-1.3-8.1-2.9-12.4-2.9-9.8,0-16.2,4.8-17.2,21.7,3.4-2.9,8.5-5.8,15.3-5.8,11.3,0,19.6,7.1,19.6,19.7s-7.9,22.5-22.4,22.5-24.2-11.1-24.2-29.1ZM1952.7,1219.5c0-8.8-4.9-12.1-11.6-12.1s-9.5,3.4-11.8,6.4v.6c0,11.1,3.4,18,12.1,18s11.3-4.7,11.3-12.9Z"/></g></g></svg>